<?xml version="1.0" encoding="iso-8859-1"?>
<!-- Generator: Adobe Illustrator 19.0.0, SVG Export Plug-In . SVG Version: 6.00 Build 0)  -->
<svg xmlns="http://www.w3.org/2000/svg" xmlns:xlink="http://www.w3.org/1999/xlink" version="1.1" id="Layer_1" x="0px" y="0px" viewBox="0 0 512 512" style="enable-background:new 0 0 512 512;" xml:space="preserve" width="512px" height="512px">
<g>
	<g>
		<path d="M403.342,379.796c2.878-3.059,2.731-7.871-0.326-10.749c-3.058-2.878-7.871-2.73-10.749,0.327    c-8.866,9.423-18.824,17.592-29.708,24.386v-39.096c0-4.199-3.405-7.604-7.604-7.604s-7.604,3.405-7.604,7.604v107.321    c0,4.199,3.405,7.604,7.604,7.604h2.309c12.257,0,22.633,8.206,25.926,19.411h-57.064c-12.362,0-22.421-10.057-22.421-22.42    v-71.527c0-4.199-3.405-7.604-7.604-7.604c-9.169,0-16.629-7.46-16.629-16.629v-13.848c0-4.199-3.405-7.604-7.604-7.604    s-7.604,3.405-7.604,7.604v13.848c0,14.935,10.337,27.502,24.233,30.92v14.477c-1.594,0.051-3.192,0.082-4.789,0.082h-90.785    v-10.716c26.058-3.705,46.159-26.163,46.159-53.228v-30.004c0-4.199-3.405-7.604-7.604-7.604s-7.604,3.405-7.604,7.604v30.004    c0,21.26-17.296,38.556-38.555,38.556c-4.199,0-7.604,3.405-7.604,7.604v63.47c0,4.199,3.405,7.604,7.604,7.604h2.308    c12.257,0,22.634,8.206,25.926,19.411h-57.063c-12.362,0-22.42-10.057-22.42-22.42V366.205c0-4.199-3.405-7.604-7.604-7.604    c-4.199,0-7.604,3.405-7.604,7.604v11.54c0,53.402-37.823,98.138-88.083,108.83c11.508-11.655,21.221-25.098,28.618-39.714    c11.105-21.964,16.974-46.583,16.974-71.192c0-35.017,13.635-67.943,38.392-92.711c24.771-24.758,57.697-38.394,92.713-38.394    h23.838c4.199,0,7.604-3.405,7.604-7.604s-3.405-7.604-7.604-7.604h-23.838c-39.077,0-75.822,15.216-103.467,42.849    c-27.63,27.643-42.846,64.387-42.846,103.464c0,22.238-5.304,44.484-15.337,64.328c-10.047,19.851-24.821,37.309-42.728,50.485    c-2.646,1.948-3.742,5.375-2.718,8.496c1.024,3.122,3.939,5.233,7.225,5.233c48.001,0,89.84-26.883,111.257-66.381v28.754    c0,20.748,16.88,37.628,37.628,37.628h65.757c4.199,0,7.604-3.405,7.604-7.604c0-21.489-16.137-39.28-36.928-41.893v-23.206    h90.785c1.597,0,3.195-0.03,4.789-0.077v35.149c0,20.748,16.88,37.628,37.628,37.628h65.757c4.199,0,7.604-3.405,7.604-7.604    c0-21.489-16.137-39.28-36.928-41.893v-43.344C377.724,403.057,391.429,392.458,403.342,379.796z" fill="#cddeff"/>
	</g>
</g>
<g>
	<g>
		<path d="M509.773,52.137l-42.121-42.121c-1.426-1.425-3.36-2.227-5.377-2.227h-57.319c-26.037,0-47.221,21.183-47.221,47.221    v158.214c0,8.895-7.237,16.132-16.132,16.132h-84.439c-4.199,0-7.604,3.405-7.604,7.604s3.405,7.604,7.604,7.604h84.44    c17.28,0,31.339-14.058,31.339-31.339V55.01c0-17.651,14.361-32.013,32.013-32.013h54.169l37.666,37.666v18.673h-69.595    c-7.465,0-13.538-6.073-13.538-13.538V54.901c0-4.199-3.405-7.604-7.604-7.604s-7.604,3.405-7.604,7.604v10.897    c0,15.851,12.895,28.746,28.746,28.746h5.549v172.718c0,28.649-8.147,56.47-23.561,80.456c-2.27,3.533-1.246,8.238,2.286,10.508    c1.272,0.817,2.696,1.208,4.103,1.208c2.501,0,4.952-1.234,6.405-3.494c16.993-26.443,25.975-57.108,25.975-88.677V94.544h56.442    c4.199,0,7.604-3.405,7.604-7.604V57.514C512,55.497,511.199,53.563,509.773,52.137z" fill="#cddeff"/>
	</g>
</g>
<g>
	<g>
		<path d="M456.748,41.214h-4.055c-4.199,0-7.604,3.405-7.604,7.604s3.405,7.604,7.604,7.604h4.055c4.199,0,7.604-3.405,7.604-7.604    S460.947,41.214,456.748,41.214z" fill="#cddeff"/>
	</g>
</g>
<g>
</g>
<g>
</g>
<g>
</g>
<g>
</g>
<g>
</g>
<g>
</g>
<g>
</g>
<g>
</g>
<g>
</g>
<g>
</g>
<g>
</g>
<g>
</g>
<g>
</g>
<g>
</g>
<g>
</g>
</svg>
