<svg id="Layer_1" data-name="Layer 1" xmlns="http://www.w3.org/2000/svg" viewBox="0 0 25 17.18"><defs><style>.cls-1{fill:#4d4d4d;}</style></defs><title>icon-car</title><path class="cls-1" d="M26.14,7.92a1.92,1.92,0,0,0,1.31-1c0.3-1-2.46-1.06-2.66-1.06s-0.35.47-.49,0.65A18.61,18.61,0,0,0,22.62,3,2.2,2.2,0,0,0,21.1,2,31.24,31.24,0,0,0,15,1.41,31.23,31.23,0,0,0,8.9,2,2.2,2.2,0,0,0,7.38,3,18.59,18.59,0,0,0,5.7,6.47C5.56,6.29,5.29,6,5.21,5.82s-3,0-2.66,1.06a1.92,1.92,0,0,0,1.31,1C3,8.45,2.5,9.56,2.5,11.83c0,1.38.17,3.26,0.26,4.17v1.89a0.7,0.7,0,0,0,.7.7H6.81a0.7,0.7,0,0,0,.7-0.7V17.56c1.84-.17,4.43-0.22,7.49-0.22s5.65,0.05,7.49.22v0.33a0.7,0.7,0,0,0,.7.7h3.35a0.7,0.7,0,0,0,.7-0.7V16c0.09-.91.26-2.79,0.26-4.17C27.5,9.56,27,8.45,26.14,7.92ZM4.5,12.08L4.3,11.61c-0.16-.39,0-0.74.41-0.7l2.57,0.33a1.11,1.11,0,0,1,.9.7l0.05,0.13c0.19,0.45,0,.7-0.41.7H5.49A1,1,0,0,1,4.5,12.08Zm4,2.42H5.6a0.31,0.31,0,0,1,0-.62H8.5A0.31,0.31,0,0,1,8.5,14.5ZM6.91,6.73a17.14,17.14,0,0,1,1.5-3.07,1,1,0,0,1,.7-0.49A30.15,30.15,0,0,1,15,2.63a30.16,30.16,0,0,1,5.89.54,1,1,0,0,1,.7.49,17.14,17.14,0,0,1,1.5,3.07A78.13,78.13,0,0,0,15,6.45,78.13,78.13,0,0,0,6.91,6.73ZM24.4,14.5h-2.9a0.31,0.31,0,0,1,0-.62h2.9A0.31,0.31,0,0,1,24.4,14.5Zm1.3-2.88-0.19.47a1,1,0,0,1-1,.7H22.18c-0.39,0-.6-0.25-0.41-0.7l0.05-.13a1.11,1.11,0,0,1,.9-0.7l2.57-.33C25.7,10.87,25.86,11.23,25.7,11.61Z" transform="translate(-2.5 -1.41)"/></svg>